<svg xmlns="http://www.w3.org/2000/svg" width="852" height="220" viewBox="0 0 852 220" fill="none"><defs><linearGradient id="jg" x1="0" y1="0" x2="1" y2="1"><stop offset="0" stop-color="#AA5CC3"/><stop offset="1" stop-color="#00A4DC"/></linearGradient><linearGradient id="jgt" x1="0" y1="0" x2="1" y2="0"><stop offset="0" stop-color="#AA5CC3"/><stop offset="1" stop-color="#00A4DC"/></linearGradient></defs><g transform="translate(33.56307692307692,26.0) scale(2.5846153846153848)"><path fill-rule="evenodd" clip-rule="evenodd" d="M.98 64.996C-3.695 55.606 26.977.001 36.5.001c9.533 0 40.153 55.713 35.527 64.995s-66.368 9.391-71.045 0m12.255-8.148c3.065 6.152 43.518 6.084 46.548 0 3.03-6.086-17.033-42.587-23.275-42.587S10.17 50.695 13.234 56.848z" fill="url(#jg)"/><path d="M29.2 30.7 L48.4 40.7 L29.2 50.6 Z" fill="#FF0033"/></g><path d="M75.00 -104.70 L75.00 -87.75 L31.36 -87.75 L31.36 -60.89 L64.80 -60.89 L64.80 -44.25 L31.36 -44.25 L31.36 -0.00 L10.36 -0.00 L10.36 -104.70 L75.00 -104.70 Z M100.50 -93.00 Q94.95 -93.00 91.27 -96.52 Q87.61 -100.05 87.61 -105.30 Q87.61 -110.55 91.27 -114.07 Q94.95 -117.61 100.50 -117.61 Q106.05 -117.61 109.71 -114.07 Q113.39 -110.55 113.39 -105.30 Q113.39 -100.05 109.71 -96.52 Q106.05 -93.00 100.50 -93.00 Z M110.86 -83.11 L110.86 -0.00 L89.86 -0.00 L89.86 -83.11 L110.86 -83.11 Z M177.59 -84.30 Q192.45 -84.30 201.59 -74.93 Q210.75 -65.55 210.75 -48.75 L210.75 -0.00 L189.75 -0.00 L189.75 -45.89 Q189.75 -55.80 184.79 -61.12 Q179.84 -66.45 171.31 -66.45 Q162.59 -66.45 157.57 -61.12 Q152.56 -55.80 152.56 -45.89 L152.56 -0.00 L131.56 -0.00 L131.56 -83.11 L152.56 -83.11 L152.56 -72.75 Q156.75 -78.14 163.27 -81.21 Q169.81 -84.30 177.59 -84.30 Z" fill="url(#jgt)" transform="translate(236.68,168.12)"/><path d="M81.61 -104.70 L81.61 -87.75 L53.70 -87.75 L53.70 -0.00 L32.70 -0.00 L32.70 -87.75 L4.80 -87.75 L4.80 -104.70 L81.61 -104.70 Z M175.35 -83.11 L175.35 -0.00 L154.19 -0.00 L154.19 -10.50 Q150.16 -5.11 143.62 -2.02 Q137.10 1.05 129.44 1.05 Q119.69 1.05 112.19 -3.07 Q104.69 -7.20 100.42 -15.21 Q96.16 -23.25 96.16 -34.36 L96.16 -83.11 L117.16 -83.11 L117.16 -37.36 Q117.16 -27.45 122.10 -22.12 Q127.05 -16.80 135.60 -16.80 Q144.30 -16.80 149.25 -22.12 Q154.19 -27.45 154.19 -37.36 L154.19 -83.11 L175.35 -83.11 Z M217.06 -70.95 Q221.09 -76.95 228.22 -80.70 Q235.34 -84.45 244.50 -84.45 Q255.15 -84.45 263.77 -79.20 Q272.40 -73.95 277.41 -64.27 Q282.45 -54.61 282.45 -41.86 Q282.45 -29.11 277.41 -19.27 Q272.40 -9.45 263.77 -4.03 Q255.15 1.36 244.50 1.36 Q235.20 1.36 228.22 -2.32 Q221.25 -6.00 217.06 -11.86 L217.06 -0.00 L196.06 -0.00 L196.06 -111.00 L217.06 -111.00 L217.06 -70.95 Z M261.00 -41.86 Q261.00 -49.36 257.91 -54.82 Q254.84 -60.30 249.82 -63.14 Q244.81 -66.00 238.95 -66.00 Q233.25 -66.00 228.22 -63.07 Q223.20 -60.14 220.13 -54.59 Q217.06 -49.05 217.06 -41.55 Q217.06 -34.05 220.13 -28.50 Q223.20 -22.95 228.22 -20.02 Q233.25 -17.11 238.95 -17.11 Q244.81 -17.11 249.82 -20.11 Q254.84 -23.11 257.91 -28.64 Q261.00 -34.20 261.00 -41.86 Z M375.01 -43.36 Q375.01 -38.86 374.40 -35.25 L313.65 -35.25 Q314.40 -26.25 319.95 -21.14 Q325.51 -16.05 333.60 -16.05 Q345.29 -16.05 350.26 -26.11 L372.90 -26.11 Q369.29 -14.11 359.10 -6.38 Q348.90 1.36 334.04 1.36 Q322.04 1.36 312.52 -3.96 Q303.01 -9.30 297.67 -19.05 Q292.35 -28.80 292.35 -41.55 Q292.35 -54.45 297.60 -64.20 Q302.85 -73.95 312.29 -79.20 Q321.76 -84.45 334.04 -84.45 Q345.90 -84.45 355.27 -79.34 Q364.65 -74.25 369.83 -64.88 Q375.01 -55.50 375.01 -43.36 Z M353.26 -49.36 Q353.10 -57.45 347.40 -62.32 Q341.70 -67.20 333.45 -67.20 Q325.65 -67.20 320.33 -62.46 Q315.01 -57.75 313.79 -49.36 L353.26 -49.36 Z" fill="#FF0033" transform="translate(453.44,168.12)"/></svg>